# xmcd
#
# Track frame offsets: 
#        150
#        13835
#        26352
#        40580
#        48272
#        60492
#        75592
#        88765
#        100255
#        118682
#        135890
#        149030
#        158977
#        173980
#        183555
#        200920
#        219635
#
# Disc length: 3176 seconds
#
# Revision: 2
# Processed by: cddbd v1.5.2PL0 Copyright (c) Steve Scherf et al.
# Submitted via: ExactAudioCopy v0.99pb4
#
DISCID=ec0c6611
DTITLE=Polish Mixes - Do Szafy Grajacej Grosk Wrzuc 2
DYEAR=1900
DGENRE=Dance Hall
TTITLE0=Robert Janowski - Komu Piosenke
TTITLE1=Iwona Zasuwa, Dorota Miskiewicz - Bal Arlekina
TTITLE2=Marcin Kudelka - Volare
TTITLE3=Agnieszka Piotrowska - Deszcz
TTITLE4=Piotr Hajduk - Wakacje z Blondynka
TTITLE5=Iwona Zasuwa - Hipolit
TTITLE6=Tomek Stera - Jedziemy Autostopem
TTITLE7=Jacek Kawalec - Lucyna
TTITLE8=Darek Kordek - Kochac
TTITLE9=Agnieszka Piotrowska, Robert Janowski - Bo We Mnie Jest Sex
TTITLE10=Marcin Kudelka - Agatko Pocaluj
TTITLE11=Denisa Geislerowa - O Mnie Sie Nie Martw
TTITLE12=Anna Jopek - Rudy Rydz
TTITLE13=Darek Kordek - Tylko Wroc
TTITLE14=Katarzyna Skrzynecka - Malenki Znak
TTITLE15=Iwona Zasuwa - Parasolki
TTITLE16=Piotr Hajduk - Zlote Kalendarze
EXTD=
EXTT0=
EXTT1=
EXTT2=
EXTT3=
EXTT4=
EXTT5=
EXTT6=
EXTT7=
EXTT8=
EXTT9=
EXTT10=
EXTT11=
EXTT12=
EXTT13=
EXTT14=
EXTT15=
EXTT16=
PLAYORDER=
